<mxfile host="Electron" modified="2024-05-26T06:10:14.118Z" agent="Mozilla/5.0 (Windows NT 10.0; Win64; x64) AppleWebKit/537.36 (KHTML, like Gecko) draw.io/24.4.8 Chrome/124.0.6367.207 Electron/30.0.6 Safari/537.36" etag="BCxIB3WITb9LVow408nY" version="24.4.8" type="device">
  <diagram name="Страница — 1" id="ydCGvGVfefTDyjYPrtU_">
    <mxGraphModel dx="1422" dy="991" grid="1" gridSize="10" guides="1" tooltips="1" connect="1" arrows="1" fold="1" page="1" pageScale="1" pageWidth="3300" pageHeight="2339" math="0" shadow="0">
      <root>
        <mxCell id="0" />
        <mxCell id="1" parent="0" />
        <mxCell id="4e2T79Pz1gokh4q61TZv-9" style="edgeStyle=orthogonalEdgeStyle;rounded=0;orthogonalLoop=1;jettySize=auto;html=1;exitX=0.5;exitY=1;exitDx=0;exitDy=0;exitPerimeter=0;entryX=0.5;entryY=0;entryDx=0;entryDy=0;" edge="1" parent="1" source="4e2T79Pz1gokh4q61TZv-1" target="4e2T79Pz1gokh4q61TZv-2">
          <mxGeometry relative="1" as="geometry" />
        </mxCell>
        <mxCell id="4e2T79Pz1gokh4q61TZv-1" value="Начало" style="strokeWidth=2;html=1;shape=mxgraph.flowchart.terminator;whiteSpace=wrap;" vertex="1" parent="1">
          <mxGeometry x="280" y="120" width="100" height="60" as="geometry" />
        </mxCell>
        <mxCell id="4e2T79Pz1gokh4q61TZv-10" style="edgeStyle=orthogonalEdgeStyle;rounded=0;orthogonalLoop=1;jettySize=auto;html=1;exitX=0.5;exitY=1;exitDx=0;exitDy=0;entryX=0.5;entryY=0;entryDx=0;entryDy=0;" edge="1" parent="1" source="4e2T79Pz1gokh4q61TZv-2" target="4e2T79Pz1gokh4q61TZv-3">
          <mxGeometry relative="1" as="geometry" />
        </mxCell>
        <mxCell id="4e2T79Pz1gokh4q61TZv-2" value="Отрисовать границы мини-карты" style="rounded=1;whiteSpace=wrap;html=1;absoluteArcSize=1;arcSize=0;strokeWidth=2;" vertex="1" parent="1">
          <mxGeometry x="280" y="210" width="100" height="60" as="geometry" />
        </mxCell>
        <mxCell id="4e2T79Pz1gokh4q61TZv-3" value="Проверить ниличие данных о карте" style="rounded=1;whiteSpace=wrap;html=1;absoluteArcSize=1;arcSize=0;strokeWidth=2;" vertex="1" parent="1">
          <mxGeometry x="280" y="300" width="100" height="60" as="geometry" />
        </mxCell>
        <mxCell id="4e2T79Pz1gokh4q61TZv-4" value="Пока счетчик меньше длины массива с данными о карте" style="strokeWidth=2;html=1;shape=mxgraph.flowchart.loop_limit;whiteSpace=wrap;" vertex="1" parent="1">
          <mxGeometry x="280" y="390" width="100" height="60" as="geometry" />
        </mxCell>
        <mxCell id="4e2T79Pz1gokh4q61TZv-5" value="Отрисовать пискель на миникарте" style="rounded=1;whiteSpace=wrap;html=1;absoluteArcSize=1;arcSize=0;strokeWidth=2;" vertex="1" parent="1">
          <mxGeometry x="280" y="590" width="100" height="60" as="geometry" />
        </mxCell>
        <mxCell id="4e2T79Pz1gokh4q61TZv-13" style="edgeStyle=orthogonalEdgeStyle;rounded=0;orthogonalLoop=1;jettySize=auto;html=1;exitX=0.5;exitY=1;exitDx=0;exitDy=0;exitPerimeter=0;entryX=0.5;entryY=0;entryDx=0;entryDy=0;" edge="1" parent="1" source="4e2T79Pz1gokh4q61TZv-6" target="4e2T79Pz1gokh4q61TZv-5">
          <mxGeometry relative="1" as="geometry" />
        </mxCell>
        <mxCell id="4e2T79Pz1gokh4q61TZv-6" value="Текущая&amp;nbsp;&lt;div&gt;клетка карты активна&lt;/div&gt;" style="strokeWidth=2;html=1;shape=mxgraph.flowchart.decision;whiteSpace=wrap;" vertex="1" parent="1">
          <mxGeometry x="280" y="480" width="100" height="80" as="geometry" />
        </mxCell>
        <mxCell id="4e2T79Pz1gokh4q61TZv-7" value="Увеличить счетчик на 1" style="strokeWidth=2;html=1;shape=mxgraph.flowchart.loop_limit;whiteSpace=wrap;flipV=1;" vertex="1" parent="1">
          <mxGeometry x="280" y="680" width="100" height="60" as="geometry" />
        </mxCell>
        <mxCell id="4e2T79Pz1gokh4q61TZv-20" style="edgeStyle=orthogonalEdgeStyle;rounded=0;orthogonalLoop=1;jettySize=auto;html=1;exitX=0.5;exitY=1;exitDx=0;exitDy=0;entryX=0.5;entryY=0;entryDx=0;entryDy=0;" edge="1" parent="1" source="4e2T79Pz1gokh4q61TZv-8" target="4e2T79Pz1gokh4q61TZv-19">
          <mxGeometry relative="1" as="geometry" />
        </mxCell>
        <mxCell id="4e2T79Pz1gokh4q61TZv-8" value="Проверить ниличие данных о змее и зум не равен нулю" style="rounded=1;whiteSpace=wrap;html=1;absoluteArcSize=1;arcSize=0;strokeWidth=2;" vertex="1" parent="1">
          <mxGeometry x="470" y="280" width="100" height="60" as="geometry" />
        </mxCell>
        <mxCell id="4e2T79Pz1gokh4q61TZv-11" style="edgeStyle=orthogonalEdgeStyle;rounded=0;orthogonalLoop=1;jettySize=auto;html=1;exitX=0.5;exitY=1;exitDx=0;exitDy=0;entryX=0.5;entryY=0;entryDx=0;entryDy=0;entryPerimeter=0;" edge="1" parent="1" source="4e2T79Pz1gokh4q61TZv-3" target="4e2T79Pz1gokh4q61TZv-4">
          <mxGeometry relative="1" as="geometry" />
        </mxCell>
        <mxCell id="4e2T79Pz1gokh4q61TZv-12" style="edgeStyle=orthogonalEdgeStyle;rounded=0;orthogonalLoop=1;jettySize=auto;html=1;exitX=0.5;exitY=1;exitDx=0;exitDy=0;exitPerimeter=0;entryX=0.5;entryY=0;entryDx=0;entryDy=0;entryPerimeter=0;" edge="1" parent="1" source="4e2T79Pz1gokh4q61TZv-4" target="4e2T79Pz1gokh4q61TZv-6">
          <mxGeometry relative="1" as="geometry" />
        </mxCell>
        <mxCell id="4e2T79Pz1gokh4q61TZv-14" style="edgeStyle=orthogonalEdgeStyle;rounded=0;orthogonalLoop=1;jettySize=auto;html=1;exitX=0.5;exitY=1;exitDx=0;exitDy=0;entryX=0.5;entryY=1;entryDx=0;entryDy=0;entryPerimeter=0;" edge="1" parent="1" source="4e2T79Pz1gokh4q61TZv-5" target="4e2T79Pz1gokh4q61TZv-7">
          <mxGeometry relative="1" as="geometry" />
        </mxCell>
        <mxCell id="4e2T79Pz1gokh4q61TZv-15" value="А" style="strokeWidth=2;html=1;shape=mxgraph.flowchart.start_2;whiteSpace=wrap;" vertex="1" parent="1">
          <mxGeometry x="305" y="770" width="50" height="50" as="geometry" />
        </mxCell>
        <mxCell id="4e2T79Pz1gokh4q61TZv-16" style="edgeStyle=orthogonalEdgeStyle;rounded=0;orthogonalLoop=1;jettySize=auto;html=1;exitX=0.5;exitY=0;exitDx=0;exitDy=0;exitPerimeter=0;entryX=0.5;entryY=0;entryDx=0;entryDy=0;entryPerimeter=0;" edge="1" parent="1" source="4e2T79Pz1gokh4q61TZv-7" target="4e2T79Pz1gokh4q61TZv-15">
          <mxGeometry relative="1" as="geometry" />
        </mxCell>
        <mxCell id="4e2T79Pz1gokh4q61TZv-18" style="edgeStyle=orthogonalEdgeStyle;rounded=0;orthogonalLoop=1;jettySize=auto;html=1;exitX=0.5;exitY=1;exitDx=0;exitDy=0;exitPerimeter=0;entryX=0.5;entryY=0;entryDx=0;entryDy=0;" edge="1" parent="1" source="4e2T79Pz1gokh4q61TZv-17" target="4e2T79Pz1gokh4q61TZv-8">
          <mxGeometry relative="1" as="geometry" />
        </mxCell>
        <mxCell id="4e2T79Pz1gokh4q61TZv-17" value="А" style="strokeWidth=2;html=1;shape=mxgraph.flowchart.start_2;whiteSpace=wrap;" vertex="1" parent="1">
          <mxGeometry x="495" y="200" width="50" height="50" as="geometry" />
        </mxCell>
        <mxCell id="4e2T79Pz1gokh4q61TZv-27" style="edgeStyle=orthogonalEdgeStyle;rounded=0;orthogonalLoop=1;jettySize=auto;html=1;exitX=0.5;exitY=1;exitDx=0;exitDy=0;entryX=0.5;entryY=0;entryDx=0;entryDy=0;" edge="1" parent="1" source="4e2T79Pz1gokh4q61TZv-19" target="4e2T79Pz1gokh4q61TZv-21">
          <mxGeometry relative="1" as="geometry" />
        </mxCell>
        <mxCell id="4e2T79Pz1gokh4q61TZv-19" value="&lt;font style=&quot;font-size: 12px;&quot;&gt;Рассчитать масштабирование для отображения позиции змеи на карте&lt;/font&gt;" style="rounded=1;whiteSpace=wrap;html=1;absoluteArcSize=1;arcSize=0;strokeWidth=2;" vertex="1" parent="1">
          <mxGeometry x="470" y="370" width="100" height="70" as="geometry" />
        </mxCell>
        <mxCell id="4e2T79Pz1gokh4q61TZv-28" style="edgeStyle=orthogonalEdgeStyle;rounded=0;orthogonalLoop=1;jettySize=auto;html=1;exitX=0.5;exitY=1;exitDx=0;exitDy=0;entryX=0.5;entryY=0;entryDx=0;entryDy=0;" edge="1" parent="1" source="4e2T79Pz1gokh4q61TZv-21" target="4e2T79Pz1gokh4q61TZv-25">
          <mxGeometry relative="1" as="geometry" />
        </mxCell>
        <mxCell id="4e2T79Pz1gokh4q61TZv-21" value="&lt;font style=&quot;font-size: 12px;&quot;&gt;Вычислтиь координаты и размеры прямоугольника&lt;/font&gt;" style="rounded=1;whiteSpace=wrap;html=1;absoluteArcSize=1;arcSize=0;strokeWidth=2;" vertex="1" parent="1">
          <mxGeometry x="470" y="470" width="100" height="70" as="geometry" />
        </mxCell>
        <mxCell id="4e2T79Pz1gokh4q61TZv-25" value="Отобразить прямоугольник, представляющего положение змеи на карте" style="rounded=1;whiteSpace=wrap;html=1;absoluteArcSize=1;arcSize=0;strokeWidth=2;" vertex="1" parent="1">
          <mxGeometry x="470" y="570" width="100" height="70" as="geometry" />
        </mxCell>
        <mxCell id="4e2T79Pz1gokh4q61TZv-26" value="Начало" style="strokeWidth=2;html=1;shape=mxgraph.flowchart.terminator;whiteSpace=wrap;" vertex="1" parent="1">
          <mxGeometry x="470" y="670" width="100" height="60" as="geometry" />
        </mxCell>
        <mxCell id="4e2T79Pz1gokh4q61TZv-29" style="edgeStyle=orthogonalEdgeStyle;rounded=0;orthogonalLoop=1;jettySize=auto;html=1;exitX=0.5;exitY=1;exitDx=0;exitDy=0;entryX=0.5;entryY=0;entryDx=0;entryDy=0;entryPerimeter=0;" edge="1" parent="1" source="4e2T79Pz1gokh4q61TZv-25" target="4e2T79Pz1gokh4q61TZv-26">
          <mxGeometry relative="1" as="geometry" />
        </mxCell>
      </root>
    </mxGraphModel>
  </diagram>
</mxfile>
